:FULLY-SPECIFIED
:DEGREES
47
root 5.236579895019531 17.45709991455078 -2.9683902263641357 90.00000933466734 -0.0 -0.0
lhipjoint -5.528973971617621e-07 -1.7075472925031877e-06 5.635377011264426e-07
lfemur -25.955565789505535 21.28330487831932 -16.896638081993434
ltibia 33.793201031905994 -15.806838711235587 9.122285396026786
lfoot -9.90982584412312 0.5096007875006215 3.2652643537218022
ltoes -4.119768616771176 1.6564746597061233 1.4480781176096293
rhipjoint -1.4590168159163821e-06 -1.2806604693773908e-06 -1.1362305144035093e-07
rfemur 9.19766507125434 -32.142856573701664 -0.16219152632076073
rtibia 17.329296414967892 7.362663887517775 -5.779480252535357
rfoot -13.244132097852939 -4.551653003935306 -4.225651916832006
rtoes 5.879921172488156 2.1480780588263197 2.2367802314733947
lowerback 7.539758739865158 -4.349757307824784 1.9008134714842222
upperback 0.5052366701469537 -2.785477075144022 2.9807225148804792
thorax -3.565156615835906 -0.13398073729491888 1.4201913090021137
lowerneck -18.91621915163407 8.411176472290187 -3.296418554073523
upperneck 22.345996935808678 -4.656724792145375 -3.3047255582081396
head 10.412540573640753 -2.5894655870034655 -1.6934994076494698
lclavicle -1.1905593500282093e-07 5.336085289072462e-08 1.7916324053945998e-07
lhumerus -81.87478897726349 -31.47119626129012 -16.96408107740543
lradius 2.2185656391743086e-07 -1.2429036721983008e-06 26.627714460442736
lwrist -7.903626476784438e-07 -10.573102099328473 1.063355711764571e-06
lhand -24.312664529949227 -6.380568062234566 -13.819513209950337
lfingers -9.414104972780149e-07 5.958838404591767e-07 7.125023250159637
lthumb -45.97581671858047 -33.5896648097342 26.370305121192466
rclavicle -2.343282567121354e-08 -1.5207843073856516e-06 -8.563986979746117e-08
rhumerus -78.96566114559332 25.62713272817089 15.207597187046396
rradius -3.1047256778586853e-07 3.1463551184179253e-06 -36.642995010256264
rwrist -1.0121652821106957e-07 2.0018599303956255 9.635362549195529e-08
rhand 11.825705859142744 -2.7373884879623125 12.84903809776626
rfingers -4.6239122781278693e-07 1.3831930793101032e-07 -7.125021115725521
rthumb -8.685582737290035 16.933046405364188 -11.884676858662989
48
root 4.940529823303223 17.41680145263672 -2.483610153198242 90.00000933466734 -0.0 -0.0
lhipjoint -5.528973971617621e-07 -1.7075472925031877e-06 5.635377011264426e-07
lfemur -26.133649311735276 19.6682400547254 -20.46531288558213
ltibia 26.58097547595234 -11.993981229724348 7.952053717602869
lfoot -11.267760512449097 -0.16956638305644234 3.6637301193809417
ltoes -8.235496322874644 3.4271981071024613 2.785632888834463
rhipjoint -1.4590168159163821e-06 -1.2806604693773908e-06 -1.1362305144035093e-07
rfemur 13.26198194347512 -31.35144938476146 -1.5041892955800478
rtibia 14.532605449867178 6.044485615916328 -4.986745445575227
rfoot -12.962086266266432 -5.58061587975585 -4.174477151362509
rtoes 8.632554002347701 3.062018414589733 3.3456074420418394
lowerback 7.321525658146788 -5.012497820067114 2.3106423240447356
upperback 0.5893728079730219 -2.8234853703278504 3.5579223782878047
thorax -3.292261103303101 0.240944581286573 1.7016476098858835
lowerneck -19.684577867220067 8.046546823449058 -3.5558374630436584
upperneck 22.627967635314317 -4.455554803634166 -3.6682581079138368
head 10.66745177120209 -2.4008785144907128 -1.8457851986623683
lclavicle -1.1905593500282093e-07 5.336085289072462e-08 1.7916324053945998e-07
lhumerus -82.44298558412768 -31.522139227214662 -16.007968999272244
lradius 6.63550472085e-07 -1.310710451785608e-06 26.309012711128062
lwrist -7.190594970520225e-07 -9.683224073124192 9.716905991785453e-07
lhand -23.710948769733196 -6.524196268309357 -14.504717787486015
lfingers -9.414104972780149e-07 5.958838404591767e-07 7.125023250159637
lthumb -45.35389725879954 -33.52488046545663 25.379266870738416
rclavicle -2.343282567121354e-08 -1.5207843073856516e-06 -8.563986979746117e-08
rhumerus -79.1219631945599 25.442883252667915 14.643992174851746
rradius -1.2241029809207331e-06 2.859011696942284e-06 -37.5506042075459
rwrist -9.280660093898418e-08 1.8336054772683545 8.849165054150181e-08
rhand 11.94149805614197 -2.7532962119826836 12.796478938329365
rfingers -4.6239122781278693e-07 1.3831930793101032e-07 -7.125021115725521
rthumb -8.568858219469101 16.885892486881712 -11.891843434649624
49
root 4.62362003326416 17.36590003967285 -1.9855401515960693 90.00000933466734 -0.0 -0.0
lhipjoint -5.528973971617621e-07 -1.7075472925031877e-06 5.635377011264426e-07
lfemur -27.15412567751208 20.272793758541567 -20.287982391708383
ltibia 21.332471995059656 -9.32055127348027 6.807318281576963
lfoot -11.037793165736645 2.5449259234258124 3.5955191545741396
ltoes -9.15696909663211 3.838580400812329 3.0691781603871986
rhipjoint -1.4590168159163821e-06 -1.2806604693773908e-06 -1.1362305144035093e-07
rfemur 15.372425019644435 -30.246959984646207 -1.6730294374286474
rtibia 13.45188766938451 5.547078370270618 -4.66468196252844
rfoot -12.919916678330774 -6.876762522415776 -4.2037436581823675
rtoes 8.793695240341227 3.1136638227817266 3.4116451260321075
lowerback 6.50698632603504 -4.678659090891224 2.6081026119274915
upperback 0.5003363829434397 -2.728501344635068 3.8738779646693087
thorax -2.9311733344334447 0.14522785772274815 1.8708494315953763
lowerneck -19.43583945312113 7.999526947429043 -3.4431749867881787
upperneck 22.658472967694884 -4.50365086133528 -3.5634804447249024
head 10.627563466449216 -2.4279292652551367 -1.792416875252239
lclavicle -1.1905593500282093e-07 5.336085289072462e-08 1.7916324053945998e-07
lhumerus -82.32993229298563 -31.415301408217324 -16.551804028914294
lradius 6.785000459765016e-07 -1.276861411310351e-06 25.985114895402305
lwrist -7.030895503298324e-07 -9.482087808672011 9.510497661844702e-07
lhand -24.212298315190473 -6.663709712296037 -14.469839426489346
lfingers -9.414104972780149e-07 5.958838404591767e-07 7.125023250159637
lthumb -45.93906688575121 -33.701427195123124 25.679335863997295
rclavicle -2.343282567121354e-08 -1.5207843073856516e-06 -8.563986979746117e-08
rhumerus -79.3194581144108 25.03969547841477 14.124498231864331
rradius -1.2016683150863127e-06 2.860798507117893e-06 -37.20950114530088
rwrist -9.54262838856997e-08 1.8859787274937778 9.094375642316036e-08
rhand 11.735264763021666 -2.6089504091582194 12.3595286852352
rfingers -4.6239122781278693e-07 1.3831930793101032e-07 -7.125021115725521
rthumb -8.632195417416277 17.167832450536082 -12.30068233666731
50
root 4.303760051727295 17.31399917602539 -1.4920300245285034 90.00000933466734 -0.0 -0.0
lhipjoint -5.528973971617621e-07 -1.7075472925031877e-06 5.635377011264426e-07
lfemur -28.043476071602978 21.012793528693674 -19.24075217495264
ltibia 18.713352288000934 -8.03061796853094 6.149408420625124
lfoot -10.673934474498079 6.592204888761997 3.584016262238192
ltoes -12.765353766281615 5.498492673383379 4.120249718220839
rhipjoint -1.4590168159163821e-06 -1.2806604693773908e-06 -1.1362305144035093e-07
rfemur 17.788119495105374 -29.444668889263585 -2.1013348054676912
rtibia 12.773448394221727 5.238385836297776 -4.458143872216424
rfoot -13.151883562922746 -7.063056358914697 -4.2710765167939995
rtoes 6.941081133169316 2.507483039839214 2.659865627439256
lowerback 6.145129733996934 -4.64784981509259 2.851672920702258
upperback 0.41391920205842525 -2.72385553533899 4.175403495768692
thorax -2.8053081025123308 0.140805256874312 2.023080474373209
lowerneck -19.18938744484685 8.412081472355213 -3.575129545797771
upperneck 22.705398074840165 -4.863345271614254 -3.7418465660315543
head 10.61418141831787 -2.603170788459919 -1.8703425034929144
lclavicle -1.1905593500282093e-07 5.336085289072462e-08 1.7916324053945998e-07
lhumerus -82.31261776343965 -31.90887478330454 -16.688242180227174
lradius 4.720107518357797e-07 -2.149049400501246e-06 26.16120912503628
lwrist -6.988110172834527e-07 -9.428089186867536 9.455130565949785e-07
lhand -24.648813997498696 -6.707349925337364 -14.28058256855111
lfingers -9.414104972780149e-07 5.958838404591767e-07 7.125023250159637
lthumb -46.430362392750226 -33.8157952976804 26.09791376199777
rclavicle -2.343282567121354e-08 -1.5207843073856516e-06 -8.563986979746117e-08
rhumerus -79.20072210587931 24.97810254002689 14.580319443861594
rradius -9.03027156271114e-07 2.008020654370409e-06 -37.01459828223998
rwrist -1.1169474474807323e-07 2.2119838700218977 1.0611158633801345e-07
rhand 12.826569336717855 -2.633586688051044 11.409624395283908
rfingers -4.6239122781278693e-07 1.3831930793101032e-07 -7.125021115725521
rthumb -7.398076710816999 16.91166279062017 -12.723368593453548
